<svg width="120" height="120" viewBox="0 0 120 120" xmlns="http://www.w3.org/2000/svg">
  <defs>
    <!-- Основной градиент фона -->
    <linearGradient id="bgGradient" x1="0%" y1="0%" x2="100%" y2="100%">
      <stop offset="0%" style="stop-color:#667eea;stop-opacity:1" />
      <stop offset="50%" style="stop-color:#764ba2;stop-opacity:1" />
      <stop offset="100%" style="stop-color:#f093fb;stop-opacity:1" />
    </linearGradient>
    
    <!-- Градиент для книги -->
    <linearGradient id="bookGradient" x1="0%" y1="0%" x2="100%" y2="100%">
      <stop offset="0%" style="stop-color:#ffffff;stop-opacity:1" />
      <stop offset="100%" style="stop-color:#f8fafc;stop-opacity:1" />
    </linearGradient>
    
    <!-- Градиент для страниц -->
    <linearGradient id="pageGradient" x1="0%" y1="0%" x2="100%" y2="100%">
      <stop offset="0%" style="stop-color:#f1f5f9;stop-opacity:1" />
      <stop offset="100%" style="stop-color:#e2e8f0;stop-opacity:1" />
    </linearGradient>
    
    <!-- Градиент для звезды -->
    <linearGradient id="starGradient" x1="0%" y1="0%" x2="100%" y2="100%">
      <stop offset="0%" style="stop-color:#fbbf24;stop-opacity:1" />
      <stop offset="100%" style="stop-color:#f59e0b;stop-opacity:1" />
    </linearGradient>
    
    <!-- Градиент для трофея -->
    <linearGradient id="trophyGradient" x1="0%" y1="0%" x2="100%" y2="100%">
      <stop offset="0%" style="stop-color:#fbbf24;stop-opacity:1" />
      <stop offset="100%" style="stop-color:#d97706;stop-opacity:1" />
    </linearGradient>
    
    <!-- Тень для книги -->
    <filter id="bookShadow" x="-50%" y="-50%" width="200%" height="200%">
      <feGaussianBlur in="SourceGraphic" stdDeviation="2"/>
      <feOffset dx="0" dy="1" result="offset"/>
      <feFlood flood-color="#000000" flood-opacity="0.15"/>
      <feComposite in2="offset" operator="in"/>
      <feMerge>
        <feMergeNode/>
        <feMergeNode in="SourceGraphic"/>
      </feMerge>
    </filter>
    
    <!-- Тень для элементов -->
    <filter id="elementShadow" x="-50%" y="-50%" width="200%" height="200%">
      <feGaussianBlur in="SourceGraphic" stdDeviation="1"/>
      <feOffset dx="0" dy="1" result="offset"/>
      <feFlood flood-color="#000000" flood-opacity="0.2"/>
      <feComposite in2="offset" operator="in"/>
      <feMerge>
        <feMergeNode/>
        <feMergeNode in="SourceGraphic"/>
      </feMerge>
    </filter>
    
    <!-- Блики -->
    <radialGradient id="highlight" cx="30%" cy="30%" r="40%">
      <stop offset="0%" style="stop-color:#ffffff;stop-opacity:0.3" />
      <stop offset="100%" style="stop-color:#ffffff;stop-opacity:0" />
    </radialGradient>
  </defs>
  
  <!-- Фон с градиентом -->
  <rect width="120" height="120" rx="24" fill="url(#bgGradient)"/>
  
  <!-- Дополнительный слой для глубины -->
  <rect width="120" height="120" rx="24" fill="url(#highlight)"/>
  
  <!-- Книга с тенью -->
  <g filter="url(#bookShadow)">
    <rect x="28" y="20" width="64" height="80" rx="5" fill="url(#bookGradient)"/>
  </g>
  
  <!-- Страницы книги -->
  <rect x="32" y="24" width="56" height="72" rx="3" fill="url(#pageGradient)"/>
  
  <!-- Текст на страницах -->
  <g fill="#1e293b" opacity="0.8">
    <!-- Заголовок -->
    <rect x="38" y="32" width="44" height="3" rx="1.5" fill="#1e40af"/>
    <rect x="38" y="38" width="38" height="2" rx="1" fill="#64748b"/>
    <rect x="38" y="44" width="42" height="2" rx="1" fill="#64748b"/>
    <rect x="38" y="50" width="32" height="2" rx="1" fill="#64748b"/>
    
    <!-- Параграф -->
    <rect x="38" y="58" width="44" height="3" rx="1.5" fill="#1e40af"/>
    <rect x="38" y="64" width="38" height="2" rx="1" fill="#64748b"/>
    <rect x="38" y="70" width="42" height="2" rx="1" fill="#64748b"/>
    <rect x="38" y="76" width="32" height="2" rx="1" fill="#64748b"/>
    
    <!-- Список -->
    <rect x="38" y="84" width="42" height="3" rx="1.5" fill="#1e40af"/>
    <rect x="38" y="90" width="32" height="2" rx="1" fill="#64748b"/>
  </g>
  
  <!-- Звезда с градиентом и тенью -->
  <g transform="translate(74, 48)" filter="url(#elementShadow)">
    <path d="M7 0L9 4L13 4L10 7L11 11L7 9L3 11L4 7L1 4L5 4Z" fill="url(#starGradient)"/>
    <!-- Блик на звезде -->
    <path d="M6 2L7 4L8 2L7 3Z" fill="#ffffff" opacity="0.6"/>
  </g>
  
  <!-- Трофей с градиентом и тенью -->
  <g transform="translate(38, 88)" filter="url(#elementShadow)">
    <path d="M4 0L5 1L5 2L6 2L6 3L5 3L5 4L4 4L4 3L3 3L3 2L4 2L4 1Z" fill="url(#trophyGradient)"/>
    <!-- Блик на трофее -->
    <path d="M3 1L4 2L5 1L4 1.5Z" fill="#ffffff" opacity="0.6"/>
  </g>
  
  <!-- Дополнительные декоративные элементы -->
  <g opacity="0.3">
    <!-- Маленькие звездочки -->
    <circle cx="20" cy="30" r="1" fill="#ffffff"/>
    <circle cx="95" cy="50" r="1" fill="#ffffff"/>
    <circle cx="25" cy="85" r="1" fill="#ffffff"/>
    <circle cx="90" cy="100" r="1" fill="#ffffff"/>
  </g>
</svg>